<svg width="16" height="16" viewBox="0 0 16 16" fill="none" xmlns="http://www.w3.org/2000/svg">
<path d="M4.604 3.02468C4.54327 2.98867 4.47409 2.96938 4.40349 2.96877C4.33289 2.96815 4.26339 2.98623 4.20204 3.02117C4.14069 3.05611 4.08968 3.10667 4.0542 3.1677C4.01871 3.22874 4.00001 3.29808 4 3.36868V12.6313C4.00001 12.7019 4.01871 12.7713 4.0542 12.8323C4.08968 12.8934 4.14069 12.9439 4.20204 12.9789C4.26339 13.0138 4.33289 13.0319 4.40349 13.0313C4.47409 13.0306 4.54327 13.0114 4.604 12.9753L12.4193 8.34401C12.479 8.3086 12.5285 8.25826 12.5628 8.19794C12.5972 8.13763 12.6152 8.06942 12.6152 8.00001C12.6152 7.93061 12.5972 7.8624 12.5628 7.80208C12.5285 7.74177 12.479 7.69143 12.4193 7.65601L4.604 3.02468Z" fill="white" stroke="white" stroke-width="1.5" stroke-linecap="round" stroke-linejoin="round"/>
</svg>
